<svg id="SVGRoot" version="1.1" viewBox="0 0 16 16" xmlns="http://www.w3.org/2000/svg">
 <path d="m8 2c-0.16187-0.017715-0.31283 0.256-0.54418 0.78967-1.9751 4.5562-2.5431 6.4007-2.3558 7.6498 0.13338 0.88936 0.89788 1.7393 1.901 2.1132 0.24954 0.09303 0.66249 0.13342 1.1225 0.10984 2.0488-0.105 3.1669-1.8342 2.5997-4.0208-0.20766-0.80059-1.2914-3.7353-1.9986-5.4124-0.3436-0.81471-0.54106-1.2092-0.72449-1.2293zm-7.0084 4.9258c-0.088092 0.0048071-0.17378 0.023519-0.25706 0.055273-0.44437 0.16895-0.26279 0.42195 0.83982 1.1696 0.5715 0.3875 1.1779 0.84289 1.3475 1.012 0.49374 0.49248 0.54643 0.20175 0.097665-0.5387-0.68821-1.1355-1.4115-1.7356-2.0279-1.6981zm13.013 0.058665c-0.36431-0.00872-0.63931 0.11126-0.99111 0.42011-0.34613 0.30394-1.2031 1.5112-1.3322 1.8766-0.094 0.2661 0.19153 0.17165 0.57524-0.19026 0.1855-0.17495 0.77283-0.60811 1.3052-0.96247 0.78666-0.52359 0.96192-0.68682 0.93567-0.87128-0.02323-0.16294-0.11654-0.23665-0.33077-0.26114-0.05615-0.00677-0.10999-0.010166-0.16204-0.011617zm0.55819 1.8583c-0.31567 0.00968-0.66897 0.098043-0.95598 0.26214-0.92428 0.52847-2.5083 2.1109-2.3574 2.355 0.03263 0.05275 0.09545 0.07367 0.13971 0.04627 0.04433-0.0274 0.32042-0.21125 0.61361-0.40855 0.2932-0.19731 1.0373-0.55543 1.6537-0.79576 1.8127-0.70684 1.9988-0.84863 1.637-1.2484-0.13681-0.15118-0.41491-0.2204-0.73058-0.21078zm-13.231 0.14457c-0.070469 2.813e-4 -0.1348 0.00968-0.1923 0.028068-0.6913 0.22268-0.85293 0.53331-0.42337 0.81383 0.12865 0.08403 0.67836 0.32417 1.2216 0.53362 1.1762 0.45351 1.7021 0.7097 2.1578 1.0514 0.18615 0.13959 0.38183 0.227 0.43473 0.19431 0.05295-0.03272 0.12552-0.01181 0.16143 0.04627 0.067861 0.10991 0.15696 0.14177 0.15696 0.05624 0-0.02701-0.2777-0.37198-0.61728-0.76652-0.97771-1.136-2.2189-1.9598-2.8996-1.9572zm11.431 2.2852c-0.05518 0.0029-0.05169 0.02314 0.03901 0.06524 0.19334 0.08954 0.18969 0.09711-0.05198 0.10844-0.20343 0.0097-0.14948 0.05537 0.24833 0.21077 0.52916 0.20666 0.99921 0.5732 0.99921 0.77931 0 0.241-0.53685 0.61382-1.2108 0.84064-0.53972 0.18162-0.6365 0.24286-0.44184 0.27961 0.6874 0.12978 1.7425-0.10427 2.4584-0.5452 0.68108-0.41954 0.35697-1.0766-0.7125-1.4445-0.46676-0.16061-1.1621-0.3036-1.3278-0.29422zm-9.8281 0.14762c-0.42419 0.02594-1.25 0.35882-1.5389 0.62033-0.10216 0.09245-0.1858 0.30018-0.1858 0.46153 0 0.35929 0.29002 0.56767 1.2409 0.89181 0.704 0.24 1.0631 0.27826 1.3927 0.14843 0.14486-0.05712 0.052175-0.11855-0.38722-0.25706-0.60448-0.19056-1.2067-0.61428-1.2067-0.84895 0-0.18406 0.57614-0.65979 0.89628-0.74014 0.38582-0.09683 0.22817-0.30286-0.21118-0.27595zm8.7719 0.30194c-0.04511-3.84e-4 -0.06447 0.0122-0.04588 0.04221 0.03398 0.05508 5.64e-4 0.10179-0.07434 0.10336-0.07483 2e-3 -0.0425 0.05489 0.07183 0.11838 0.66348 0.36809 0.66651 0.62996 0.01035 0.92795-0.28743 0.13052-0.35855 0.19655-0.21828 0.20305 0.20792 0.0097 0.20792 0.0097 0 0.10598-0.1546 0.07173-0.11462 0.08093 0.15594 0.0364 0.20013-0.03291 0.57439-0.16137 0.83171-0.2855 0.52872-0.25505 0.64352-0.54948 0.3263-0.83657-0.18149-0.16425-0.86198-0.41339-1.0577-0.41524zm-7.3011 0.03466c-0.080448-0.0038-0.33393 0.07783-0.60043 0.21381-0.64743 0.3303-0.52672 0.84248 0.26397 1.1196 0.44571 0.15621 0.56233 0.14263 0.2599-0.0303-0.30323-0.17336-0.23181-0.19931 0.14924-0.0544 0.37274 0.14171 0.33211 0.06166-0.097258-0.19167-0.42003-0.24784-0.46014-0.45441-0.1328-0.68369 0.15431-0.10809 0.18022-0.16227 0.078027-0.16345-0.13287-2e-3 -0.13251-0.01481 0.00294-0.10234 0.11087-0.07173 0.12486-0.10509 0.076576-0.10762z" fill="#0cf" stroke-width=".10396"/>
</svg>
